<svg xmlns="http://www.w3.org/2000/svg" width="27.867" height="27.867" viewBox="0 0 27.867 27.867">
  <g id="_001-shop" data-name="001-shop" transform="translate(0.5 0.5)">
    <g id="Gruppe_3221" data-name="Gruppe 3221" transform="translate(0 0)">
      <path id="Pfad_3066" data-name="Pfad 3066" d="M26.818,6.414,24.9.656A.959.959,0,0,0,23.988,0H2.879a.959.959,0,0,0-.911.656L.049,6.414A.978.978,0,0,0,0,6.691v.985a4.778,4.778,0,0,0,1.919,3.817v12.5A2.879,2.879,0,0,0,4.8,26.867H22.069a2.879,2.879,0,0,0,2.879-2.879v-12.5a4.777,4.777,0,0,0,1.919-3.817V6.691A.975.975,0,0,0,26.818,6.414ZM20.15,1.919H23.3l1.28,3.838H20.15Zm-5.757,0h3.838V5.757H14.393Zm-5.757,0h3.838V5.757H8.636Zm-5.065,0H6.717V5.757H2.29ZM15.353,24.948H11.514V17.272h3.838v7.676Zm7.676-.959a.96.96,0,0,1-.96.96h-4.8V16.312a.96.96,0,0,0-.96-.96H10.555a.96.96,0,0,0-.96.96v8.636H4.8a.96.96,0,0,1-.96-.96V12.378A4.743,4.743,0,0,0,7.676,11.5a4.863,4.863,0,0,0,5.757,0,4.863,4.863,0,0,0,5.757,0,4.743,4.743,0,0,0,3.838.881v11.61Zm-.96-13.434a2.836,2.836,0,0,1-2.156-1,.96.96,0,0,0-1.445,0,2.895,2.895,0,0,1-4.312,0,.992.992,0,0,0-1.4-.043l-.043.043a2.895,2.895,0,0,1-4.312,0A.992.992,0,0,0,7,9.516l-.043.043a2.835,2.835,0,0,1-2.156,1A2.879,2.879,0,0,1,1.919,7.676H24.948A2.879,2.879,0,0,1,22.069,10.555Z" transform="translate(0 0)" fill="#2e2e22" stroke="#fff" stroke-width="1"/>
    </g>
  </g>
</svg>
