<svg xmlns="http://www.w3.org/2000/svg" width="34.481" height="31.722" viewBox="0 0 34.481 31.722">
  <path id="_001-shopping-cart" data-name="001-shopping-cart" d="M31.619,26.841H5.838l-.383-4.269a1.354,1.354,0,0,0-1.349-1.233H1.354a1.354,1.354,0,0,0,0,2.708H2.868c.827,9.214-1.31-14.6,1.558,17.352a5.21,5.21,0,0,0,1.95,3.53,4.1,4.1,0,1,0,7.093,1.129H20.88a4.106,4.106,0,1,0,3.86-2.708H9.617a2.515,2.515,0,0,1-2.312-1.525l21.642-1.272a1.354,1.354,0,0,0,1.234-1.023l2.752-11.006a1.355,1.355,0,0,0-1.314-1.683ZM9.608,48.852a1.4,1.4,0,1,1,1.4-1.4A1.4,1.4,0,0,1,9.608,48.852Zm15.133,0a1.4,1.4,0,1,1,1.4-1.4A1.4,1.4,0,0,1,24.741,48.852ZM27.8,37.907,6.941,39.132l-.86-9.584h23.8Z" transform="translate(0.75 -20.588)" fill="#2e2e22" stroke="#fff" stroke-width="1.5"/>
</svg>
