<svg xmlns="http://www.w3.org/2000/svg" width="32.329" height="32.388" viewBox="0 0 32.329 32.388">
  <path id="Icon_feather-phone-call" data-name="Icon feather-phone-call" d="M22.213,7.388A7.36,7.36,0,0,1,28.028,13.2M22.213,1.5a13.248,13.248,0,0,1,11.7,11.688M32.444,24.935v4.416A2.944,2.944,0,0,1,29.235,32.3a29.132,29.132,0,0,1-12.7-4.519A28.7,28.7,0,0,1,7.7,18.944,29.132,29.132,0,0,1,3.18,6.181,2.944,2.944,0,0,1,6.109,2.972h4.416A2.944,2.944,0,0,1,13.469,5.5,18.9,18.9,0,0,0,14.5,9.64a2.944,2.944,0,0,1-.662,3.106l-1.87,1.87A23.553,23.553,0,0,0,20.8,23.448l1.869-1.87a2.944,2.944,0,0,1,3.106-.662,18.9,18.9,0,0,0,4.136,1.03A2.944,2.944,0,0,1,32.444,24.935Z" transform="translate(-2.416 -0.672)" fill="none" stroke="#2e2e22" stroke-linecap="round" stroke-linejoin="round" stroke-width="1.5"/>
</svg>
