<svg xmlns="http://www.w3.org/2000/svg" width="59.072" height="60.779" viewBox="0 0 59.072 60.779">
  <g id="Gruppe_3238" data-name="Gruppe 3238" transform="translate(-73.362 -39.07)">
    <path id="Path" d="M36.252,9.4C23.494.972,5.7-2.657,2.076,2.142c-4.565,6.086-1.17,19.9,5.969,31.016C12.493,22.975,24.665,14.08,36.252,9.4Z" transform="translate(73.362 39.07)" fill="#b5b5b3"/>
    <path id="Path-2" data-name="Path" d="M30.042,18a26.039,26.039,0,0,1,13.577,3.745c5.15,3.043,7.374,9.363,6.2,16.854,5.969-12.406,7.842-26.685,3.862-29.377A9.724,9.724,0,0,0,48.417,7.93c-7.725,0-19.9,4.916-29.143,12.055A30.3,30.3,0,0,1,30.042,18Z" transform="translate(76.646 40.421)" fill="#b5b5b3"/>
    <path id="Path-3" data-name="Path" d="M43.464,22.99a22.483,22.483,0,0,0-11.587-3.16c-18.024,0-34.293,20.6-13.928,34.761A17.9,17.9,0,0,0,27.312,57.4C44.166,57.283,54.7,29.544,43.464,22.99Z" transform="translate(74.811 42.449)" fill="#b5b5b3"/>
  </g>
</svg>
